<svg xmlns="http://www.w3.org/2000/svg" xmlns:xlink="http://www.w3.org/1999/xlink" width="1920" zoomAndPan="magnify" viewBox="0 0 1440 809.999993" height="1080" preserveAspectRatio="xMidYMid meet" version="1.0"><defs><g/></defs><path fill="#d9d9d9" d="M 629.191406 347.050781 C 626.261719 334.84375 623.328125 323.132812 616.5 311.898438 C 609.660156 300.671875 601.851562 285.539062 591.601562 276.265625 C 580.859375 266.007812 559.378906 257.222656 544.734375 253.316406 C 533.507812 250.386719 521.792969 250.386719 510.078125 249.898438 C 487.617188 245.992188 450.027344 254.292969 431.964844 267.964844 C 417.808594 278.21875 408.046875 288.46875 396.8125 301.648438 C 390.957031 308.976562 389.980469 316.785156 386.074219 325.082031 C 382.167969 331.429688 378.265625 335.820312 376.3125 343.632812 C 371.429688 359.742188 369.964844 375.847656 369.964844 392.453125 C 369.964844 411.976562 374.359375 424.675781 383.144531 441.757812 C 389.003906 452.496094 394.863281 467.628906 404.625 475.445312 C 418.785156 486.671875 435.382812 493.507812 451.003906 501.804688 C 466.621094 510.101562 476.390625 516.9375 494.453125 517.429688 C 509.101562 517.917969 520.328125 517.429688 534.484375 513.519531 C 549.128906 509.613281 561.824219 500.828125 575.980469 495.457031 C 590.136719 490.089844 601.851562 474.46875 609.660156 462.261719 C 620.40625 444.199219 628.214844 427.113281 631.632812 406.117188 C 633.585938 395.378906 634.5625 384.152344 634.5625 372.925781 C 634.074219 364.140625 631.144531 355.835938 629.191406 347.050781 " fill-opacity="1" fill-rule="nonzero"/><path stroke-linecap="round" transform="matrix(0.1316, 0, 0, -0.1316, 288.597414, 686.098281)" fill="none" stroke-linejoin="round" d="M 2588.09383 2576.3424 C 2565.831822 2669.100767 2543.540131 2758.089433 2491.654811 2843.456812 C 2439.680444 2928.764827 2380.344772 3043.755518 2302.457427 3114.222194 C 2220.830065 3192.168904 2057.605023 3258.925245 1946.324666 3288.607922 C 1861.016652 3310.86993 1771.998303 3310.86993 1682.979954 3314.580265 C 1512.30456 3344.262942 1226.668158 3281.187253 1089.415458 3177.297883 C 981.845436 3099.380855 907.668426 3021.49351 822.301046 2921.344157 C 777.806713 2865.659455 770.386044 2806.323783 740.703367 2743.277777 C 711.020689 2695.043426 681.367695 2661.680097 666.526356 2602.314743 C 629.42301 2479.903382 618.292006 2357.521704 618.292006 2231.340643 C 618.292006 2082.986623 651.685018 1986.488239 718.441359 1856.685892 C 762.965374 1775.088212 807.48939 1660.097521 881.666401 1600.702484 C 989.266105 1515.39447 1115.387801 1463.449784 1234.088827 1400.403778 C 1352.76017 1337.357772 1426.996546 1285.413087 1564.249245 1281.673069 C 1675.559285 1277.962735 1760.867299 1281.673069 1868.437321 1311.385429 C 1979.717678 1341.068106 2076.186379 1407.824447 2183.756401 1448.638129 C 2291.326423 1489.422127 2380.344772 1608.123153 2439.680444 1700.881519 C 2521.337489 1838.134219 2580.67316 1967.966249 2606.645503 2127.510639 C 2621.486841 2209.108318 2628.907511 2294.416332 2628.907511 2379.724347 C 2625.197176 2446.480688 2602.935168 2509.586059 2588.09383 2576.3424 Z M 2588.09383 2576.3424 " stroke="#391448" stroke-width="45" stroke-opacity="1" stroke-miterlimit="10"/><path fill="#d9d9d9" d="M 412.820312 336.085938 L 412.167969 334.785156 C 408.265625 338.691406 397.199219 348.460938 410.21875 349.753906 C 418.679688 351.054688 421.933594 339.347656 412.820312 336.085938 " fill-opacity="1" fill-rule="nonzero"/><path stroke-linecap="round" transform="matrix(0.1316, 0, 0, -0.1316, 288.597414, 686.098281)" fill="none" stroke-linejoin="round" d="M 943.940657 2659.661675 L 938.98365 2669.546007 C 909.330656 2639.86333 825.239631 2565.626954 924.171994 2555.801988 C 988.464673 2545.917656 1013.190343 2634.87664 943.940657 2659.661675 Z M 943.940657 2659.661675 " stroke="#391448" stroke-width="45" stroke-opacity="1" stroke-miterlimit="10"/><path fill="#d9d9d9" d="M 503.914062 366.769531 L 503.261719 365.46875 C 499.351562 369.371094 488.289062 379.140625 501.308594 380.441406 C 509.769531 381.742188 513.023438 370.023438 503.914062 366.769531 " fill-opacity="1" fill-rule="nonzero"/><path stroke-linecap="round" transform="matrix(0.1316, 0, 0, -0.1316, 288.597414, 686.098281)" fill="none" stroke-linejoin="round" d="M 1636.140689 2426.504246 L 1631.183682 2436.388577 C 1601.471322 2406.735583 1517.409981 2332.499207 1616.342344 2322.614876 C 1680.635022 2312.730544 1705.360693 2401.778576 1636.140689 2426.504246 Z M 1636.140689 2426.504246 " stroke="#391448" stroke-width="45" stroke-opacity="1" stroke-miterlimit="10"/><path fill="#d9d9d9" d="M 523.972656 279.671875 L 524.808594 278.484375 C 519.523438 276.890625 505.6875 271.761719 510.699219 283.847656 C 513.550781 291.917969 525.417969 289.246094 523.972656 279.671875 " fill-opacity="1" fill-rule="nonzero"/><path stroke-linecap="round" transform="matrix(0.1316, 0, 0, -0.1316, 288.597414, 686.098281)" fill="none" stroke-linejoin="round" d="M 1788.561237 3088.338899 L 1794.91333 3097.362433 C 1754.752667 3109.472965 1649.616625 3148.44632 1687.6995 3056.608117 C 1709.367854 2995.283706 1799.543827 3015.586657 1788.561237 3088.338899 Z M 1788.561237 3088.338899 " stroke="#391448" stroke-width="45" stroke-opacity="1" stroke-miterlimit="10"/><path fill="#d9d9d9" d="M 580 450.449219 L 579.347656 449.148438 C 575.445312 453.050781 564.378906 462.820312 577.398438 464.121094 C 585.859375 465.421875 589.113281 453.703125 580 450.449219 " fill-opacity="1" fill-rule="nonzero"/><path stroke-linecap="round" transform="matrix(0.1316, 0, 0, -0.1316, 288.597414, 686.098281)" fill="none" stroke-linejoin="round" d="M 2214.299876 1790.641935 L 2209.342869 1800.526267 C 2179.689874 1770.873272 2095.59885 1696.636896 2194.531213 1686.752565 C 2258.823891 1676.868233 2283.549562 1765.916265 2214.299876 1790.641935 Z M 2214.299876 1790.641935 " stroke="#391448" stroke-width="45" stroke-opacity="1" stroke-miterlimit="10"/><path fill="#d9d9d9" d="M 427.050781 450.449219 L 426.402344 449.148438 C 422.496094 453.050781 411.429688 462.820312 424.449219 464.121094 C 432.910156 465.421875 436.164062 453.703125 427.050781 450.449219 " fill-opacity="1" fill-rule="nonzero"/><path stroke-linecap="round" transform="matrix(0.1316, 0, 0, -0.1316, 288.597414, 686.098281)" fill="none" stroke-linejoin="round" d="M 1052.07465 1790.641935 L 1047.147326 1800.526267 C 1017.464649 1770.873272 933.373624 1696.636896 1032.305987 1686.752565 C 1096.598666 1676.868233 1121.324336 1765.916265 1052.07465 1790.641935 Z M 1052.07465 1790.641935 " stroke="#391448" stroke-width="45" stroke-opacity="1" stroke-miterlimit="10"/><path fill="#d9d9d9" d="M 400.535156 410.375 C 399.234375 417.535156 382.3125 422.742188 398.582031 424.695312 C 403.789062 425.347656 412.253906 422.777344 413.902344 416.738281 C 412.867188 402.148438 405.742188 411.027344 400.535156 410.375 " fill-opacity="1" fill-rule="nonzero"/><path stroke-linecap="round" transform="matrix(0.1316, 0, 0, -0.1316, 288.597414, 686.098281)" fill="none" stroke-linejoin="round" d="M 850.588638 2095.15652 C 840.704306 2040.748173 712.118948 2001.181164 835.747299 1986.339826 C 875.314308 1981.382819 939.636669 2000.91402 952.162759 2046.803439 C 944.296849 2157.668239 890.155646 2090.199513 850.588638 2095.15652 Z M 850.588638 2095.15652 " stroke="#391448" stroke-width="45" stroke-opacity="1" stroke-miterlimit="10"/><path fill="#d9d9d9" d="M 471.808594 402.992188 L 469.070312 405.851562 C 465.082031 407.070312 445.324219 414.058594 458.617188 419.992188 C 464.1875 422.222656 487.082031 409.488281 471.808594 402.992188 " fill-opacity="1" fill-rule="nonzero"/><path stroke-linecap="round" transform="matrix(0.1316, 0, 0, -0.1316, 288.597414, 686.098281)" fill="none" stroke-linejoin="round" d="M 1392.178766 2151.25678 L 1371.371209 2129.529061 C 1341.065195 2120.268065 1190.930214 2067.165756 1291.940365 2022.077769 C 1334.267862 2005.12896 1508.238033 2101.894488 1392.178766 2151.25678 Z M 1392.178766 2151.25678 " stroke="#391448" stroke-width="45" stroke-opacity="1" stroke-miterlimit="10"/><path fill="#d9d9d9" d="M 472.863281 321.851562 L 467.019531 329.785156 C 467.585938 335.757812 463.300781 337.535156 466.238281 341.683594 C 468.148438 344.382812 475.449219 337.921875 479.515625 333.707031 C 482.234375 330.894531 492.207031 322.433594 487.523438 317.910156 C 483.796875 315.214844 476.046875 319.496094 472.863281 321.851562 " fill-opacity="1" fill-rule="nonzero"/><path stroke-linecap="round" transform="matrix(0.1316, 0, 0, -0.1316, 288.597414, 686.098281)" fill="none" stroke-linejoin="round" d="M 1400.193088 2767.825351 L 1355.787803 2707.539834 C 1360.091792 2662.15502 1327.529895 2648.649402 1349.851268 2617.126399 C 1364.366097 2596.615669 1419.843021 2645.710817 1450.742688 2677.738426 C 1471.401831 2699.109953 1547.181706 2763.402632 1511.592176 2797.775172 C 1483.274902 2818.256219 1424.38447 2785.724005 1400.193088 2767.825351 Z M 1400.193088 2767.825351 " stroke="#391448" stroke-width="45" stroke-opacity="1" stroke-miterlimit="10"/><path fill="#d9d9d9" d="M 547.558594 366.277344 C 561.875 363.019531 548.203125 351.957031 541.042969 346.75 L 540.5 346.75 C 535.292969 353.257812 532.582031 369.53125 547.558594 366.277344 " fill-opacity="1" fill-rule="nonzero"/><path stroke-linecap="round" transform="matrix(0.1316, 0, 0, -0.1316, 288.597414, 686.098281)" fill="none" stroke-linejoin="round" d="M 1967.785242 2430.244263 C 2076.572254 2454.999616 1972.682883 2539.060958 1918.274536 2578.627966 L 1914.148644 2578.627966 C 1874.581635 2529.176626 1853.981857 2405.518593 1967.785242 2430.244263 Z M 1967.785242 2430.244263 " stroke="#391448" stroke-width="45" stroke-opacity="1" stroke-miterlimit="10"/><path fill="#d9d9d9" d="M 444.347656 365.46875 L 443.804688 365.46875 C 438.597656 371.980469 435.886719 388.25 450.863281 384.996094 C 465.179688 381.742188 451.507812 370.671875 444.347656 365.46875 " fill-opacity="1" fill-rule="nonzero"/><path stroke-linecap="round" transform="matrix(0.1316, 0, 0, -0.1316, 288.597414, 686.098281)" fill="none" stroke-linejoin="round" d="M 1183.509545 2436.388577 L 1179.383653 2436.388577 C 1139.816644 2386.907555 1119.216866 2263.279204 1233.02025 2288.004874 C 1341.807262 2312.730544 1237.917892 2396.851251 1183.509545 2436.388577 Z M 1183.509545 2436.388577 " stroke="#391448" stroke-width="45" stroke-opacity="1" stroke-miterlimit="10"/><path fill="#d9d9d9" d="M 555.507812 298.25 L 550.074219 298.148438 C 550.730469 305.308594 533.804688 316.382812 552.03125 317.03125 C 570.257812 317.679688 566.578125 303.460938 555.507812 298.25 " fill-opacity="1" fill-rule="nonzero"/><path stroke-linecap="round" transform="matrix(0.1316, 0, 0, -0.1316, 288.597414, 686.098281)" fill="none" stroke-linejoin="round" d="M 2028.18949 2947.168086 L 1986.900886 2947.939836 C 1991.887575 2893.531489 1863.272535 2809.381099 2001.771907 2804.453775 C 2140.271279 2799.52645 2112.310197 2907.571395 2028.18949 2947.168086 Z M 2028.18949 2947.168086 " stroke="#391448" stroke-width="45" stroke-opacity="1" stroke-miterlimit="10"/><path fill="#d9d9d9" d="M 443.046875 289.796875 C 448.253906 294.351562 469.636719 290.34375 468.433594 285.242188 C 466.816406 278.382812 459.914062 275.472656 454.054688 272.867188 L 450.855469 272.867188 C 449.554688 280.027344 432.632812 281.332031 443.046875 289.796875 " fill-opacity="1" fill-rule="nonzero"/><path stroke-linecap="round" transform="matrix(0.1316, 0, 0, -0.1316, 288.597414, 686.098281)" fill="none" stroke-linejoin="round" d="M 1173.625213 3011.4014 C 1213.192222 2976.791398 1375.675197 3007.245825 1366.532932 3046.011401 C 1354.244304 3098.134183 1301.795014 3120.247777 1257.270998 3140.046123 L 1232.960885 3140.046123 C 1223.076554 3085.637776 1094.491196 3075.723761 1173.625213 3011.4014 Z M 1173.625213 3011.4014 " stroke="#391448" stroke-width="45" stroke-opacity="1" stroke-miterlimit="10"/><path fill="#d9d9d9" d="M 601.816406 354.128906 C 606.480469 348.855469 604.871094 341.539062 603.617188 335.25 L 601.769531 332.640625 C 595.167969 335.710938 584.332031 322.644531 583.445312 336.03125 C 582.722656 342.914062 598.335938 358.0625 601.816406 354.128906 " fill-opacity="1" fill-rule="nonzero"/><path stroke-linecap="round" transform="matrix(0.1316, 0, 0, -0.1316, 288.597414, 686.098281)" fill="none" stroke-linejoin="round" d="M 2380.077628 2522.557389 C 2415.518744 2562.629003 2403.289481 2618.224658 2393.761342 2666.013768 L 2379.721436 2685.841796 C 2329.557711 2662.511212 2247.217965 2761.799767 2240.479997 2660.077233 C 2234.988702 2607.776355 2353.630362 2492.666933 2380.077628 2522.557389 Z M 2380.077628 2522.557389 " stroke="#391448" stroke-width="45" stroke-opacity="1" stroke-miterlimit="10"/><path fill="#d9d9d9" d="M 476.625 445.039062 C 471.378906 446.738281 471.417969 450.890625 470.113281 458.054688 C 472.71875 458.699219 483.132812 460.65625 485.734375 458.699219 C 492.25 454.152344 481.832031 448.9375 476.625 445.039062 " fill-opacity="1" fill-rule="nonzero"/><path stroke-linecap="round" transform="matrix(0.1316, 0, 0, -0.1316, 288.597414, 686.098281)" fill="none" stroke-linejoin="round" d="M 1428.777507 1831.752443 C 1388.913671 1818.840478 1389.210498 1787.287793 1379.296484 1732.849763 C 1399.094829 1727.952121 1478.228847 1713.0811 1497.99751 1727.952121 C 1547.508215 1762.502757 1468.374198 1802.129131 1428.777507 1831.752443 Z M 1428.777507 1831.752443 " stroke="#391448" stroke-width="45" stroke-opacity="1" stroke-miterlimit="10"/><path fill="#d9d9d9" d="M 538.71875 414.429688 C 540.019531 422.242188 528.242188 432.71875 545.8125 432.074219 C 565.996094 430.765625 543.84375 409.792969 538.71875 414.429688 " fill-opacity="1" fill-rule="nonzero"/><path stroke-linecap="round" transform="matrix(0.1316, 0, 0, -0.1316, 288.597414, 686.098281)" fill="none" stroke-linejoin="round" d="M 1900.613343 2064.345901 C 1910.497675 2004.980547 1821.004403 1925.371607 1954.517085 1930.269249 C 2107.887478 1940.212945 1939.557016 2099.579239 1900.613343 2064.345901 Z M 1900.613343 2064.345901 " stroke="#391448" stroke-width="45" stroke-opacity="1" stroke-miterlimit="10"/><path fill="#d9d9d9" d="M 523.554688 472.539062 C 514.714844 472.539062 513.792969 493.363281 529.414062 490.109375 C 549.59375 486.207031 535.269531 478.394531 523.554688 472.539062 " fill-opacity="1" fill-rule="nonzero"/><path stroke-linecap="round" transform="matrix(0.1316, 0, 0, -0.1316, 288.597414, 686.098281)" fill="none" stroke-linejoin="round" d="M 1785.38519 1622.786396 C 1718.213292 1622.786396 1711.20818 1464.548044 1829.909206 1489.273714 C 1983.249916 1518.926708 1874.403539 1578.292063 1785.38519 1622.786396 Z M 1785.38519 1622.786396 " stroke="#391448" stroke-width="45" stroke-opacity="1" stroke-miterlimit="10"/><path fill="#d9d9d9" d="M 598.113281 394.988281 C 599.414062 404.097656 582.492188 413.863281 596.808594 416.472656 C 602.015625 417.117188 611.132812 413.210938 611.132812 408.65625 C 611.132812 403.449219 603.019531 387.234375 598.113281 394.988281 " fill-opacity="1" fill-rule="nonzero"/><path stroke-linecap="round" transform="matrix(0.1316, 0, 0, -0.1316, 288.597414, 686.098281)" fill="none" stroke-linejoin="round" d="M 2351.93845 2212.076586 C 2361.822781 2142.856583 2233.237424 2068.64989 2342.024436 2048.821861 C 2381.591444 2043.92422 2450.870813 2073.606897 2450.870813 2108.216898 C 2450.870813 2147.783907 2389.219892 2270.9967 2351.93845 2212.076586 Z M 2351.93845 2212.076586 " stroke="#391448" stroke-width="45" stroke-opacity="1" stroke-miterlimit="10"/><path fill="#d9d9d9" d="M 755.226562 428.480469 C 747.496094 428.480469 739.992188 425.363281 734.527344 419.90625 C 731.648438 417.019531 729.425781 413.570312 727.96875 409.824219 C 723.742188 412.21875 718.894531 413.59375 713.769531 413.59375 C 698.769531 413.59375 686.101562 401.824219 684.636719 387.160156 C 670.839844 384.859375 660.042969 372.640625 660.042969 358.273438 C 660.042969 347.554688 666.054688 338.035156 674.835938 332.933594 C 669.34375 327.589844 665.890625 320.15625 665.890625 312.035156 C 665.890625 306.933594 667.25 302.113281 669.621094 297.902344 C 660.71875 296.492188 651.578125 296.402344 642.441406 296.019531 C 619.984375 292.117188 582.394531 300.414062 564.332031 314.085938 C 550.171875 324.339844 540.410156 334.589844 529.183594 347.769531 C 523.324219 355.089844 522.347656 362.898438 518.441406 371.203125 C 514.539062 377.550781 510.632812 381.941406 508.679688 389.753906 C 503.792969 405.867188 502.335938 421.972656 502.335938 438.570312 C 502.335938 458.101562 506.726562 470.792969 515.515625 487.878906 C 521.371094 498.617188 527.230469 513.753906 536.992188 521.566406 C 551.148438 532.792969 567.75 539.625 583.371094 547.925781 C 598.996094 556.222656 608.757812 563.0625 626.820312 563.550781 C 641.464844 564.039062 652.691406 563.550781 666.851562 559.644531 C 681.496094 555.734375 694.1875 546.949219 708.347656 541.578125 C 722.503906 536.210938 734.21875 520.589844 742.03125 508.378906 C 752.769531 490.320312 760.578125 473.234375 764 452.238281 C 765.546875 443.742188 766.464844 434.945312 766.789062 426.078125 C 763.164062 427.640625 759.226562 428.480469 755.226562 428.480469 " fill-opacity="1" fill-rule="nonzero"/><path stroke-linecap="round" transform="matrix(0.1316, 0, 0, -0.1316, 288.597414, 686.098281)" fill="none" stroke-linejoin="round" d="M 3545.835092 1957.577312 C 3487.063391 1957.577312 3430.042968 1981.264088 3388.516903 2022.730788 C 3366.64077 2044.666287 3349.751326 2070.87609 3338.679688 2099.341778 C 3306.563031 2081.146297 3269.726828 2070.697994 3230.783156 2070.697994 C 3116.801676 2070.697994 3020.540753 2160.131901 3009.40975 2271.560671 C 2904.570534 2289.043768 2822.527614 2381.891182 2822.527614 2491.064069 C 2822.527614 2572.513335 2868.209254 2644.850019 2934.935912 2683.615596 C 2893.202068 2724.221498 2866.962582 2780.707633 2866.962582 2842.417919 C 2866.962582 2881.183495 2877.292153 2917.811919 2895.309538 2949.809845 C 2827.662717 2960.525291 2758.205252 2961.207993 2688.777471 2964.116895 C 2518.131759 2993.76989 2232.495357 2930.723883 2095.242657 2826.834513 C 1987.642953 2748.917486 1913.465942 2671.030141 1828.157928 2570.880788 C 1783.633912 2515.255451 1776.213243 2455.919779 1746.530566 2392.814407 C 1716.877571 2344.580057 1687.194894 2311.216728 1672.353556 2251.851373 C 1635.220526 2129.41033 1624.148888 2007.028652 1624.148888 1880.906956 C 1624.148888 1732.493571 1657.512217 1636.054552 1724.298241 1506.222522 C 1768.792574 1424.624843 1813.31659 1309.604469 1887.4936 1250.239114 C 1995.063622 1164.9311 2121.215 1113.016098 2239.916026 1049.940409 C 2358.646735 986.894402 2432.823745 934.920034 2570.076444 931.2097 C 2681.356801 927.499365 2766.694498 931.2097 2874.26452 960.892377 C 2985.544877 990.604737 3081.983895 1057.361078 3189.5836 1098.174759 C 3297.153622 1138.958757 3386.171971 1257.659784 3445.537325 1350.447832 C 3527.135005 1487.670849 3586.470677 1617.502879 3612.472702 1777.047269 C 3624.227042 1841.607092 3631.202471 1908.452481 3633.666134 1975.832158 C 3606.120609 1963.959087 3576.20047 1957.577312 3545.835092 1957.577312 Z M 3545.835092 1957.577312 " stroke="#391448" stroke-width="45" stroke-opacity="1" stroke-miterlimit="10"/><path fill="#d9d9d9" d="M 545.1875 382.207031 L 544.539062 380.914062 C 540.632812 384.816406 529.566406 394.578125 542.585938 395.878906 C 551.046875 397.179688 554.300781 385.460938 545.1875 382.207031 " fill-opacity="1" fill-rule="nonzero"/><path stroke-linecap="round" transform="matrix(0.1316, 0, 0, -0.1316, 288.597414, 686.098281)" fill="none" stroke-linejoin="round" d="M 1949.767857 2309.198306 L 1944.840532 2319.023272 C 1915.157855 2289.370277 1831.06683 2215.193267 1929.999194 2205.308935 C 1994.291872 2195.424604 2019.017542 2284.472636 1949.767857 2309.198306 Z M 1949.767857 2309.198306 " stroke="#391448" stroke-width="45" stroke-opacity="1" stroke-miterlimit="10"/><path fill="#d9d9d9" d="M 636.277344 412.894531 L 635.625 411.585938 C 631.71875 415.492188 620.65625 425.257812 633.671875 426.558594 C 642.132812 427.855469 645.394531 416.140625 636.277344 412.894531 " fill-opacity="1" fill-rule="nonzero"/><path stroke-linecap="round" transform="matrix(0.1316, 0, 0, -0.1316, 288.597414, 686.098281)" fill="none" stroke-linejoin="round" d="M 2641.967889 2076.011194 L 2636.981199 2085.95489 C 2607.298522 2056.272213 2523.23718 1982.06552 2622.13986 1972.181189 C 2686.432539 1962.32654 2711.217574 2051.344889 2641.967889 2076.011194 Z M 2641.967889 2076.011194 " stroke="#391448" stroke-width="45" stroke-opacity="1" stroke-miterlimit="10"/><path fill="#d9d9d9" d="M 656.339844 325.796875 L 657.175781 324.609375 C 651.890625 323.015625 638.054688 317.878906 643.066406 329.964844 C 645.917969 338.035156 657.78125 335.367188 656.339844 325.796875 " fill-opacity="1" fill-rule="nonzero"/><path stroke-linecap="round" transform="matrix(0.1316, 0, 0, -0.1316, 288.597414, 686.098281)" fill="none" stroke-linejoin="round" d="M 2794.388436 2737.845847 L 2800.740529 2746.869381 C 2760.579867 2758.979913 2655.443824 2798.012634 2693.526699 2706.17443 C 2715.195053 2644.850019 2805.341344 2665.123288 2794.388436 2737.845847 Z M 2794.388436 2737.845847 " stroke="#391448" stroke-width="45" stroke-opacity="1" stroke-miterlimit="10"/><path fill="#d9d9d9" d="M 712.367188 496.570312 L 711.71875 495.265625 C 707.8125 499.171875 696.742188 508.933594 709.765625 510.242188 C 718.226562 511.542969 721.480469 499.828125 712.367188 496.570312 " fill-opacity="1" fill-rule="nonzero"/><path stroke-linecap="round" transform="matrix(0.1316, 0, 0, -0.1316, 288.597414, 686.098281)" fill="none" stroke-linejoin="round" d="M 3220.127075 1440.178566 L 3215.19975 1450.09258 C 3185.517073 1420.409903 3101.396366 1346.232892 3200.358412 1336.289195 C 3264.651091 1326.404864 3289.376761 1415.423213 3220.127075 1440.178566 Z M 3220.127075 1440.178566 " stroke="#391448" stroke-width="45" stroke-opacity="1" stroke-miterlimit="10"/><path fill="#d9d9d9" d="M 559.417969 496.570312 L 558.769531 495.265625 C 554.863281 499.171875 543.792969 508.933594 556.816406 510.242188 C 565.277344 511.542969 568.53125 499.828125 559.417969 496.570312 " fill-opacity="1" fill-rule="nonzero"/><path stroke-linecap="round" transform="matrix(0.1316, 0, 0, -0.1316, 288.597414, 686.098281)" fill="none" stroke-linejoin="round" d="M 2057.90185 1440.178566 L 2052.974525 1450.09258 C 2023.291848 1420.409903 1939.171141 1346.232892 2038.133187 1336.289195 C 2102.425865 1326.404864 2127.151535 1415.423213 2057.90185 1440.178566 Z M 2057.90185 1440.178566 " stroke="#391448" stroke-width="45" stroke-opacity="1" stroke-miterlimit="10"/><path fill="#d9d9d9" d="M 532.902344 456.496094 C 531.601562 463.65625 514.675781 468.863281 530.949219 470.816406 C 536.15625 471.46875 544.625 468.894531 546.265625 462.859375 C 545.234375 448.269531 538.109375 457.148438 532.902344 456.496094 " fill-opacity="1" fill-rule="nonzero"/><path stroke-linecap="round" transform="matrix(0.1316, 0, 0, -0.1316, 288.597414, 686.098281)" fill="none" stroke-linejoin="round" d="M 1856.415837 1744.693151 C 1846.531505 1690.284804 1717.916465 1650.717795 1841.574498 1635.876456 C 1881.141507 1630.919449 1945.493551 1650.480333 1957.960275 1696.34007 C 1950.124049 1807.204869 1895.982845 1739.736144 1856.415837 1744.693151 Z M 1856.415837 1744.693151 " stroke="#391448" stroke-width="45" stroke-opacity="1" stroke-miterlimit="10"/><path fill="#d9d9d9" d="M 604.175781 449.113281 L 601.4375 451.972656 C 597.453125 453.191406 577.691406 460.183594 590.984375 466.113281 C 596.550781 468.34375 619.449219 455.613281 604.175781 449.113281 " fill-opacity="1" fill-rule="nonzero"/><path stroke-linecap="round" transform="matrix(0.1316, 0, 0, -0.1316, 288.597414, 686.098281)" fill="none" stroke-linejoin="round" d="M 2398.005965 1800.793411 L 2377.198408 1779.065691 C 2346.922077 1769.804696 2196.757413 1716.672704 2297.767564 1671.6144 C 2340.065379 1654.665591 2514.065233 1751.401436 2398.005965 1800.793411 Z M 2398.005965 1800.793411 " stroke="#391448" stroke-width="45" stroke-opacity="1" stroke-miterlimit="10"/><path fill="#d9d9d9" d="M 605.230469 367.972656 L 599.386719 375.902344 C 599.949219 381.875 595.667969 383.65625 598.605469 387.804688 C 600.515625 390.503906 607.820312 384.042969 611.882812 379.828125 C 614.601562 377.015625 624.574219 368.554688 619.890625 364.03125 C 616.164062 361.335938 608.410156 365.613281 605.230469 367.972656 " fill-opacity="1" fill-rule="nonzero"/><path stroke-linecap="round" transform="matrix(0.1316, 0, 0, -0.1316, 288.597414, 686.098281)" fill="none" stroke-linejoin="round" d="M 2406.020288 2417.361981 L 2361.615003 2357.106147 C 2365.889308 2311.721333 2333.357094 2298.186032 2355.678467 2266.663029 C 2370.193296 2246.152299 2425.699903 2295.247447 2456.569887 2327.275056 C 2477.22903 2348.646584 2553.008905 2412.939262 2517.419375 2447.311803 C 2489.102101 2467.79285 2430.181987 2435.290318 2406.020288 2417.361981 Z M 2406.020288 2417.361981 " stroke="#391448" stroke-width="45" stroke-opacity="1" stroke-miterlimit="10"/><path fill="#d9d9d9" d="M 679.921875 412.398438 C 694.238281 409.140625 680.570312 398.078125 673.410156 392.871094 L 672.863281 392.871094 C 667.65625 399.378906 664.953125 415.648438 679.921875 412.398438 " fill-opacity="1" fill-rule="nonzero"/><path stroke-linecap="round" transform="matrix(0.1316, 0, 0, -0.1316, 288.597414, 686.098281)" fill="none" stroke-linejoin="round" d="M 2973.582758 2079.780894 C 3082.36977 2104.536246 2978.510083 2188.597588 2924.101735 2228.164597 L 2919.94616 2228.164597 C 2880.379152 2178.713257 2859.838739 2055.084906 2973.582758 2079.780894 Z M 2973.582758 2079.780894 " stroke="#391448" stroke-width="45" stroke-opacity="1" stroke-miterlimit="10"/><path fill="#d9d9d9" d="M 576.71875 411.585938 L 576.167969 411.585938 C 570.960938 418.101562 568.257812 434.371094 583.226562 431.117188 C 597.550781 427.855469 583.875 416.792969 576.71875 411.585938 " fill-opacity="1" fill-rule="nonzero"/><path stroke-linecap="round" transform="matrix(0.1316, 0, 0, -0.1316, 288.597414, 686.098281)" fill="none" stroke-linejoin="round" d="M 2189.366427 2085.95489 L 2185.181169 2085.95489 C 2145.614161 2036.444185 2125.073748 1912.815834 2238.817767 1937.541505 C 2347.664144 1962.32654 2243.745091 2046.387882 2189.366427 2085.95489 Z M 2189.366427 2085.95489 " stroke="#391448" stroke-width="45" stroke-opacity="1" stroke-miterlimit="10"/><path fill="#d9d9d9" d="M 575.414062 335.910156 C 580.621094 340.472656 602 336.46875 600.796875 331.355469 C 599.183594 324.503906 592.28125 321.59375 586.421875 318.988281 L 583.226562 318.988281 C 581.921875 326.148438 565 327.449219 575.414062 335.910156 " fill-opacity="1" fill-rule="nonzero"/><path stroke-linecap="round" transform="matrix(0.1316, 0, 0, -0.1316, 288.597414, 686.098281)" fill="none" stroke-linejoin="round" d="M 2179.452413 2660.997396 C 2219.019421 2626.328029 2381.472714 2656.752773 2372.330449 2695.607397 C 2360.071503 2747.670813 2307.622213 2769.784408 2263.098197 2789.582753 L 2238.817767 2789.582753 C 2228.903753 2735.174406 2100.318395 2725.290074 2179.452413 2660.997396 Z M 2179.452413 2660.997396 " stroke="#391448" stroke-width="45" stroke-opacity="1" stroke-miterlimit="10"/><path fill="#d9d9d9" d="M 608.992188 491.152344 C 603.746094 492.859375 603.785156 497.015625 602.484375 504.179688 C 605.085938 504.824219 615.5 506.777344 618.101562 504.824219 C 624.613281 500.269531 614.199219 495.0625 608.992188 491.152344 " fill-opacity="1" fill-rule="nonzero"/><path stroke-linecap="round" transform="matrix(0.1316, 0, 0, -0.1316, 288.597414, 686.098281)" fill="none" stroke-linejoin="round" d="M 2434.604706 1481.348439 C 2394.74087 1468.377109 2395.037697 1436.79474 2385.153366 1382.35671 C 2404.922029 1377.459069 2484.056046 1362.61773 2503.824709 1377.459069 C 2553.305732 1412.06907 2474.171714 1451.636079 2434.604706 1481.348439 Z M 2434.604706 1481.348439 " stroke="#391448" stroke-width="45" stroke-opacity="1" stroke-miterlimit="10"/><path fill="#d9d9d9" d="M 671.085938 460.550781 C 672.390625 468.359375 660.609375 478.84375 678.1875 478.195312 C 698.363281 476.890625 676.210938 455.914062 671.085938 460.550781 " fill-opacity="1" fill-rule="nonzero"/><path stroke-linecap="round" transform="matrix(0.1316, 0, 0, -0.1316, 288.597414, 686.098281)" fill="none" stroke-linejoin="round" d="M 2906.440542 1713.882532 C 2916.354557 1654.54686 2826.831602 1574.878555 2960.403649 1579.805879 C 3113.714677 1589.719893 2945.384215 1749.11587 2906.440542 1713.882532 Z M 2906.440542 1713.882532 " stroke="#391448" stroke-width="45" stroke-opacity="1" stroke-miterlimit="10"/><path fill="#d9d9d9" d="M 655.921875 518.660156 C 647.078125 518.660156 646.160156 539.484375 661.78125 536.230469 C 681.964844 532.332031 667.640625 524.515625 655.921875 518.660156 " fill-opacity="1" fill-rule="nonzero"/><path stroke-linecap="round" transform="matrix(0.1316, 0, 0, -0.1316, 288.597414, 686.098281)" fill="none" stroke-linejoin="round" d="M 2791.21239 1272.323026 C 2724.010808 1272.323026 2717.035379 1114.084674 2835.736405 1138.810344 C 2989.106798 1168.433656 2880.260421 1227.828693 2791.21239 1272.323026 Z M 2791.21239 1272.323026 " stroke="#391448" stroke-width="45" stroke-opacity="1" stroke-miterlimit="10"/><path fill="#d9d9d9" d="M 730.480469 441.109375 C 731.78125 450.21875 714.859375 459.984375 729.179688 462.585938 C 734.386719 463.242188 743.496094 459.332031 743.496094 454.777344 C 743.496094 449.570312 735.386719 433.359375 730.480469 441.109375 " fill-opacity="1" fill-rule="nonzero"/><path stroke-linecap="round" transform="matrix(0.1316, 0, 0, -0.1316, 288.597414, 686.098281)" fill="none" stroke-linejoin="round" d="M 3357.765649 1861.613216 C 3367.649981 1792.393213 3239.064623 1718.18652 3347.881318 1698.417857 C 3387.448326 1693.431167 3456.668329 1723.143527 3456.668329 1757.753529 C 3456.668329 1797.320537 3395.047092 1920.503648 3357.765649 1861.613216 Z M 3357.765649 1861.613216 " stroke="#391448" stroke-width="45" stroke-opacity="1" stroke-miterlimit="10"/><g fill="#d9d9d9" fill-opacity="1"><g transform="translate(145.051463, 515.999994)"><g><path d="M 91.5 -219 C 102.101562 -219 111.65625 -217.5 120.15625 -214.5 C 128.65625 -211.5 136.003906 -207.25 142.203125 -201.75 C 148.398438 -196.25 153.296875 -189.546875 156.890625 -181.640625 C 160.492188 -173.742188 162.5 -165 162.90625 -155.40625 L 125.40625 -155.40625 C 125 -164.800781 121.742188 -172.148438 115.640625 -177.453125 C 109.546875 -182.753906 101.5 -185.40625 91.5 -185.40625 C 81.101562 -185.40625 72.851562 -182.503906 66.75 -176.703125 C 60.644531 -170.898438 57.59375 -162.898438 57.59375 -152.703125 L 57.59375 -63.296875 C 57.59375 -53.097656 60.539062 -45.097656 66.4375 -39.296875 C 72.34375 -33.492188 80.695312 -30.59375 91.5 -30.59375 C 101.5 -30.59375 109.546875 -33.34375 115.640625 -38.84375 C 121.742188 -44.34375 125 -51.695312 125.40625 -60.90625 L 162.90625 -60.90625 C 161.90625 -41.300781 155.050781 -25.75 142.34375 -14.25 C 129.644531 -2.75 112.695312 3 91.5 3 C 80.695312 3 70.894531 1.453125 62.09375 -1.640625 C 53.300781 -4.742188 45.800781 -9.195312 39.59375 -15 C 33.394531 -20.800781 28.59375 -27.800781 25.1875 -36 C 21.789062 -44.195312 20.09375 -53.296875 20.09375 -63.296875 L 20.09375 -152.703125 C 20.09375 -162.703125 21.789062 -171.800781 25.1875 -180 C 28.59375 -188.195312 33.394531 -195.195312 39.59375 -201 C 45.800781 -206.800781 53.300781 -211.25 62.09375 -214.34375 C 70.894531 -217.445312 80.695312 -219 91.5 -219 Z M 91.5 -219 "/></g></g></g><g fill="#d9d9d9" fill-opacity="1"><g transform="translate(801.98399, 515.999994)"><g><path d="M 61.5 -219 L 61.5 -99.90625 L 87.90625 -99.90625 L 129 -165 L 171 -165 L 120 -84.59375 L 171.90625 0 L 129 0 L 87.90625 -67.796875 L 61.5 -67.796875 L 61.5 0 L 24 0 L 24 -219 Z M 61.5 -219 "/></g></g></g><g fill="#d9d9d9" fill-opacity="1"><g transform="translate(981.983658, 515.999994)"><g><path d="M 24.90625 -34.203125 L 84 -34.203125 L 84 -131.09375 L 32.40625 -131.09375 L 32.40625 -165 L 120 -165 L 120 -34.203125 L 167.703125 -34.203125 L 167.703125 0 L 24.90625 0 Z M 73.203125 -209.703125 C 73.203125 -215.503906 75.148438 -220.253906 79.046875 -223.953125 C 82.953125 -227.648438 88.101562 -229.5 94.5 -229.5 L 102.296875 -229.5 C 108.703125 -229.5 113.851562 -227.648438 117.75 -223.953125 C 121.644531 -220.253906 123.59375 -215.503906 123.59375 -209.703125 C 123.59375 -203.703125 121.59375 -198.898438 117.59375 -195.296875 C 113.59375 -191.703125 108.394531 -189.90625 102 -189.90625 L 94.5 -189.90625 C 88.101562 -189.90625 82.953125 -191.703125 79.046875 -195.296875 C 75.148438 -198.898438 73.203125 -203.703125 73.203125 -209.703125 Z M 73.203125 -209.703125 "/></g></g></g><g fill="#d9d9d9" fill-opacity="1"><g transform="translate(1161.983327, 515.999994)"><g><path d="M 90 3 C 79.195312 3 69.34375 1.453125 60.4375 -1.640625 C 51.539062 -4.742188 43.992188 -9.09375 37.796875 -14.6875 C 31.597656 -20.289062 26.796875 -27.09375 23.390625 -35.09375 C 19.992188 -43.09375 18.296875 -51.992188 18.296875 -61.796875 L 18.296875 -103.5 C 18.296875 -113.300781 19.992188 -122.203125 23.390625 -130.203125 C 26.796875 -138.203125 31.597656 -145 37.796875 -150.59375 C 43.992188 -156.195312 51.539062 -160.5 60.4375 -163.5 C 69.34375 -166.5 79.195312 -168 90 -168 C 100.800781 -168 110.597656 -166.445312 119.390625 -163.34375 C 128.191406 -160.25 135.691406 -155.898438 141.890625 -150.296875 C 148.097656 -144.703125 152.898438 -137.90625 156.296875 -129.90625 C 159.703125 -121.90625 161.40625 -113.003906 161.40625 -103.203125 L 161.40625 -73.203125 L 55.5 -73.203125 L 55.5 -62.40625 C 55.5 -51.40625 58.546875 -42.800781 64.640625 -36.59375 C 70.742188 -30.394531 79.195312 -27.296875 90 -27.296875 C 98.195312 -27.296875 105.144531 -28.546875 110.84375 -31.046875 C 116.550781 -33.546875 120.601562 -37.195312 123 -42 L 159.90625 -42 C 158.101562 -35.195312 155.097656 -28.992188 150.890625 -23.390625 C 146.691406 -17.796875 141.539062 -13.046875 135.4375 -9.140625 C 129.34375 -5.242188 122.445312 -2.242188 114.75 -0.140625 C 107.050781 1.953125 98.800781 3 90 3 Z M 124.5 -98.40625 L 124.5 -103.203125 C 124.5 -114.203125 121.5 -122.75 115.5 -128.84375 C 109.5 -134.945312 101 -138 90 -138 C 79.195312 -138 70.742188 -134.945312 64.640625 -128.84375 C 58.546875 -122.75 55.5 -114.300781 55.5 -103.5 L 55.5 -98.40625 Z M 124.5 -98.40625 "/></g></g></g></svg>