<svg xmlns="http://www.w3.org/2000/svg" xmlns:xlink="http://www.w3.org/1999/xlink" width="1920" zoomAndPan="magnify" viewBox="0 0 1440 809.999993" height="1080" preserveAspectRatio="xMidYMid meet" version="1.0"><defs><g/><clipPath id="99a49f39f3"><path d="M 499 292 L 770.367188 292 L 770.367188 567 L 499 567 Z M 499 292 " clip-rule="nonzero"/></clipPath></defs><path fill="#ffffff" d="M 629.410156 347.050781 C 626.480469 334.84375 623.546875 323.132812 616.707031 311.898438 C 609.867188 300.671875 602.050781 285.539062 591.792969 276.265625 C 581.039062 266.007812 559.542969 257.222656 544.886719 253.316406 C 533.648438 250.386719 521.921875 250.386719 510.199219 249.898438 C 487.71875 245.992188 450.097656 254.292969 432.019531 267.964844 C 417.851562 278.21875 408.078125 288.46875 396.839844 301.648438 C 390.976562 308.976562 390 316.785156 386.089844 325.082031 C 382.179688 331.429688 378.273438 335.820312 376.320312 343.632812 C 371.433594 359.742188 369.964844 375.847656 369.964844 392.453125 C 369.964844 411.976562 374.363281 424.675781 383.15625 441.757812 C 389.023438 452.496094 394.886719 467.628906 404.660156 475.445312 C 418.828125 486.671875 435.441406 493.507812 451.078125 501.804688 C 466.707031 510.101562 476.480469 516.9375 494.5625 517.429688 C 509.21875 517.917969 520.457031 517.429688 534.625 513.519531 C 549.285156 509.613281 561.988281 500.828125 576.15625 495.457031 C 590.324219 490.089844 602.050781 474.46875 609.867188 462.261719 C 620.617188 444.199219 628.433594 427.113281 631.855469 406.117188 C 633.808594 395.378906 634.789062 384.152344 634.789062 372.925781 C 634.300781 364.140625 631.367188 355.835938 629.410156 347.050781 " fill-opacity="1" fill-rule="nonzero"/><path stroke-linecap="round" transform="matrix(0.131711, 0, 0, -0.1316, 288.531467, 686.098281)" fill="none" stroke-linejoin="round" d="M 2588.075788 2576.3424 C 2565.832528 2669.100767 2543.559611 2758.089433 2491.629013 2843.456812 C 2439.698416 2928.764827 2380.353398 3043.755518 2302.472331 3114.222194 C 2220.824738 3192.168904 2057.618526 3258.925245 1946.342911 3288.607922 C 1861.017766 3310.86993 1771.985411 3310.86993 1682.982714 3314.580265 C 1512.302766 3344.262942 1226.669651 3281.187253 1089.413908 3177.297883 C 981.845503 3099.380855 907.641988 3021.49351 822.316843 2921.344157 C 777.800666 2865.659455 770.386246 2806.323783 740.698908 2743.277777 C 711.011571 2695.043426 681.353891 2661.680097 666.525051 2602.314743 C 629.423293 2479.903382 618.272006 2357.521704 618.272006 2231.340643 C 618.272006 2082.986623 651.666553 1986.488239 718.425991 1856.685892 C 762.971826 1775.088212 807.488003 1660.097521 881.691518 1600.702484 C 989.259923 1515.39447 1115.394036 1463.449784 1234.113729 1400.403778 C 1352.774106 1337.357772 1426.977621 1285.413087 1564.263021 1281.673069 C 1675.538636 1277.962735 1760.863781 1281.673069 1868.432186 1311.385429 C 1979.737459 1341.068106 2076.184234 1407.824447 2183.752638 1448.638129 C 2291.321043 1489.422127 2380.353398 1608.123153 2439.698416 1700.881519 C 2521.316351 1838.134219 2580.661368 1967.966249 2606.641496 2127.510639 C 2621.470336 2209.108318 2628.914414 2294.416332 2628.914414 2379.724347 C 2625.207204 2446.480688 2602.934286 2509.586059 2588.075788 2576.3424 Z M 2588.075788 2576.3424 " stroke="#391448" stroke-width="45" stroke-opacity="1" stroke-miterlimit="10"/><path fill="#ffffff" d="M 412.859375 336.085938 L 412.207031 334.785156 C 408.300781 338.691406 397.222656 348.460938 410.257812 349.753906 C 418.726562 351.054688 421.980469 339.347656 412.859375 336.085938 " fill-opacity="1" fill-rule="nonzero"/><path stroke-linecap="round" transform="matrix(0.131711, 0, 0, -0.1316, 288.531467, 686.098281)" fill="none" stroke-linejoin="round" d="M 943.942989 2659.661675 L 938.990156 2669.546007 C 909.332476 2639.86333 825.223296 2565.626954 924.190974 2555.801988 C 988.488824 2545.917656 1013.193671 2634.87664 943.942989 2659.661675 Z M 943.942989 2659.661675 " stroke="#391448" stroke-width="45" stroke-opacity="1" stroke-miterlimit="10"/><path fill="#ffffff" d="M 504.027344 366.769531 L 503.375 365.46875 C 499.464844 369.371094 488.394531 379.140625 501.421875 380.441406 C 509.890625 381.742188 513.144531 370.023438 504.027344 366.769531 " fill-opacity="1" fill-rule="nonzero"/><path stroke-linecap="round" transform="matrix(0.131711, 0, 0, -0.1316, 288.531467, 686.098281)" fill="none" stroke-linejoin="round" d="M 1636.123579 2426.504246 L 1631.170747 2436.388577 C 1601.483409 2406.735583 1517.433544 2332.499207 1616.341907 2322.614876 C 1680.639757 2312.730544 1705.344604 2401.778576 1636.123579 2426.504246 Z M 1636.123579 2426.504246 " stroke="#391448" stroke-width="45" stroke-opacity="1" stroke-miterlimit="10"/><path fill="#ffffff" d="M 524.105469 279.671875 L 524.941406 278.484375 C 519.652344 276.890625 505.804688 271.761719 510.820312 283.847656 C 513.675781 291.917969 525.550781 289.246094 524.105469 279.671875 " fill-opacity="1" fill-rule="nonzero"/><path stroke-linecap="round" transform="matrix(0.131711, 0, 0, -0.1316, 288.531467, 686.098281)" fill="none" stroke-linejoin="round" d="M 1788.564054 3088.338899 L 1794.910797 3097.362433 C 1754.754299 3109.472965 1649.617824 3148.44632 1687.698285 3056.608117 C 1709.378049 2995.283706 1799.537396 3015.586657 1788.564054 3088.338899 Z M 1788.564054 3088.338899 " stroke="#391448" stroke-width="45" stroke-opacity="1" stroke-miterlimit="10"/><path fill="#ffffff" d="M 580.179688 450.449219 L 579.527344 449.148438 C 575.621094 453.050781 564.542969 462.820312 577.574219 464.121094 C 586.042969 465.421875 589.300781 453.703125 580.179688 450.449219 " fill-opacity="1" fill-rule="nonzero"/><path stroke-linecap="round" transform="matrix(0.131711, 0, 0, -0.1316, 288.531467, 686.098281)" fill="none" stroke-linejoin="round" d="M 2214.300049 1790.641935 L 2209.347216 1800.526267 C 2179.689536 1770.873272 2095.580356 1696.636896 2194.518376 1686.752565 C 2258.816226 1676.868233 2283.550731 1765.916265 2214.300049 1790.641935 Z M 2214.300049 1790.641935 " stroke="#391448" stroke-width="45" stroke-opacity="1" stroke-miterlimit="10"/><path fill="#ffffff" d="M 427.101562 450.449219 L 426.453125 449.148438 C 422.542969 453.050781 411.464844 462.820312 424.496094 464.121094 C 432.964844 465.421875 436.222656 453.703125 427.101562 450.449219 " fill-opacity="1" fill-rule="nonzero"/><path stroke-linecap="round" transform="matrix(0.131711, 0, 0, -0.1316, 288.531467, 686.098281)" fill="none" stroke-linejoin="round" d="M 1052.074889 1790.641935 L 1047.151715 1800.526267 C 1017.464377 1770.873272 933.355197 1696.636896 1032.293217 1686.752565 C 1096.591067 1676.868233 1121.325572 1765.916265 1052.074889 1790.641935 Z M 1052.074889 1790.641935 " stroke="#391448" stroke-width="45" stroke-opacity="1" stroke-miterlimit="10"/><path fill="#ffffff" d="M 400.5625 410.375 C 399.261719 417.535156 382.324219 422.742188 398.609375 424.695312 C 403.820312 425.347656 412.292969 422.777344 413.941406 416.738281 C 412.90625 402.148438 405.773438 411.027344 400.5625 410.375 " fill-opacity="1" fill-rule="nonzero"/><path stroke-linecap="round" transform="matrix(0.131711, 0, 0, -0.1316, 288.531467, 686.098281)" fill="none" stroke-linejoin="round" d="M 850.580612 2095.15652 C 840.704605 2040.748173 712.108905 2001.181164 835.751772 1986.339826 C 875.315117 1981.382819 939.642625 2000.91402 952.158166 2046.803439 C 944.298881 2157.668239 890.143957 2090.199513 850.580612 2095.15652 Z M 850.580612 2095.15652 " stroke="#391448" stroke-width="45" stroke-opacity="1" stroke-miterlimit="10"/><path fill="#ffffff" d="M 471.898438 402.992188 L 469.15625 405.851562 C 465.164062 407.070312 445.390625 414.058594 458.695312 419.992188 C 464.269531 422.222656 487.183594 409.488281 471.898438 402.992188 " fill-opacity="1" fill-rule="nonzero"/><path stroke-linecap="round" transform="matrix(0.131711, 0, 0, -0.1316, 288.531467, 686.098281)" fill="none" stroke-linejoin="round" d="M 1392.189162 2151.25678 L 1371.369471 2129.529061 C 1341.059322 2120.268065 1190.932147 2067.165756 1291.946204 2022.077769 C 1334.267714 2005.12896 1508.239664 2101.894488 1392.189162 2151.25678 Z M 1392.189162 2151.25678 " stroke="#391448" stroke-width="45" stroke-opacity="1" stroke-miterlimit="10"/><path fill="#ffffff" d="M 472.953125 321.851562 L 467.101562 329.785156 C 467.667969 335.757812 463.382812 337.535156 466.320312 341.683594 C 468.234375 344.382812 475.539062 337.921875 479.609375 333.707031 C 482.332031 330.894531 492.3125 322.433594 487.625 317.910156 C 483.894531 315.214844 476.136719 319.496094 472.953125 321.851562 " fill-opacity="1" fill-rule="nonzero"/><path stroke-linecap="round" transform="matrix(0.131711, 0, 0, -0.1316, 288.531467, 686.098281)" fill="none" stroke-linejoin="round" d="M 1400.196736 2767.825351 L 1355.769531 2707.539834 C 1360.069895 2662.15502 1327.53542 2648.649402 1349.837995 2617.126399 C 1364.370259 2596.615669 1419.83012 2645.710817 1450.733422 2677.738426 C 1471.404825 2699.109953 1547.180197 2763.402632 1511.590982 2797.775172 C 1483.267897 2818.256219 1424.367745 2785.724005 1400.196736 2767.825351 Z M 1400.196736 2767.825351 " stroke="#391448" stroke-width="45" stroke-opacity="1" stroke-miterlimit="10"/><path fill="#ffffff" d="M 547.710938 366.277344 C 562.039062 363.019531 548.359375 351.957031 541.191406 346.75 L 540.644531 346.75 C 535.433594 353.257812 532.722656 369.53125 547.710938 366.277344 " fill-opacity="1" fill-rule="nonzero"/><path stroke-linecap="round" transform="matrix(0.131711, 0, 0, -0.1316, 288.531467, 686.098281)" fill="none" stroke-linejoin="round" d="M 1967.785414 2430.244263 C 2076.569783 2454.999616 1972.708588 2539.060958 1918.286746 2578.627966 L 1914.134671 2578.627966 C 1874.571326 2529.176626 1853.988896 2405.518593 1967.785414 2430.244263 Z M 1967.785414 2430.244263 " stroke="#391448" stroke-width="45" stroke-opacity="1" stroke-miterlimit="10"/><path fill="#ffffff" d="M 444.414062 365.46875 L 443.867188 365.46875 C 438.65625 371.980469 435.945312 388.25 450.933594 384.996094 C 465.261719 381.742188 451.582031 370.671875 444.414062 365.46875 " fill-opacity="1" fill-rule="nonzero"/><path stroke-linecap="round" transform="matrix(0.131711, 0, 0, -0.1316, 288.531467, 686.098281)" fill="none" stroke-linejoin="round" d="M 1183.517727 2436.388577 L 1179.365651 2436.388577 C 1139.802307 2386.907555 1119.219877 2263.279204 1233.016394 2288.004874 C 1341.800764 2312.730544 1237.939569 2396.851251 1183.517727 2436.388577 Z M 1183.517727 2436.388577 " stroke="#391448" stroke-width="45" stroke-opacity="1" stroke-miterlimit="10"/><path fill="#ffffff" d="M 555.667969 298.25 L 550.230469 298.148438 C 550.882812 305.308594 533.945312 316.382812 552.183594 317.03125 C 570.429688 317.679688 566.746094 303.460938 555.667969 298.25 " fill-opacity="1" fill-rule="nonzero"/><path stroke-linecap="round" transform="matrix(0.131711, 0, 0, -0.1316, 288.531467, 686.098281)" fill="none" stroke-linejoin="round" d="M 2028.198107 2947.168086 L 1986.914617 2947.939836 C 1991.86745 2893.531489 1863.27175 2809.381099 2001.743457 2804.453775 C 2140.27448 2799.52645 2112.307288 2907.571395 2028.198107 2947.168086 Z M 2028.198107 2947.168086 " stroke="#391448" stroke-width="45" stroke-opacity="1" stroke-miterlimit="10"/><path fill="#ffffff" d="M 443.113281 289.796875 C 448.324219 294.351562 469.722656 290.34375 468.519531 285.242188 C 466.902344 278.382812 459.992188 275.472656 454.128906 272.867188 L 450.925781 272.867188 C 449.625 280.027344 432.6875 281.332031 443.113281 289.796875 " fill-opacity="1" fill-rule="nonzero"/><path stroke-linecap="round" transform="matrix(0.131711, 0, 0, -0.1316, 288.531467, 686.098281)" fill="none" stroke-linejoin="round" d="M 1173.641719 3011.4014 C 1213.205064 2976.791398 1375.669835 3007.245825 1366.535269 3046.011401 C 1354.25699 3098.134183 1301.792554 3120.247777 1257.276377 3140.046123 L 1232.957079 3140.046123 C 1223.081072 3085.637776 1094.485372 3075.723761 1173.641719 3011.4014 Z M 1173.641719 3011.4014 " stroke="#391448" stroke-width="45" stroke-opacity="1" stroke-miterlimit="10"/><path fill="#ffffff" d="M 602.015625 354.128906 C 606.679688 348.855469 605.070312 341.539062 603.816406 335.25 L 601.96875 332.640625 C 595.363281 335.710938 584.515625 322.644531 583.625 336.03125 C 582.90625 342.914062 598.53125 358.0625 602.015625 354.128906 " fill-opacity="1" fill-rule="nonzero"/><path stroke-linecap="round" transform="matrix(0.131711, 0, 0, -0.1316, 288.531467, 686.098281)" fill="none" stroke-linejoin="round" d="M 2380.086479 2522.557389 C 2415.497749 2562.629003 2403.278785 2618.224658 2393.75867 2666.013768 L 2379.730587 2685.841796 C 2329.57945 2662.511212 2247.220073 2761.799767 2240.458122 2660.077233 C 2235.001109 2607.776355 2353.631829 2492.666933 2380.086479 2522.557389 Z M 2380.086479 2522.557389 " stroke="#391448" stroke-width="45" stroke-opacity="1" stroke-miterlimit="10"/><path fill="#ffffff" d="M 476.71875 445.039062 C 471.464844 446.738281 471.507812 450.890625 470.199219 458.054688 C 472.808594 458.699219 483.234375 460.65625 485.835938 458.699219 C 492.355469 454.152344 481.929688 448.9375 476.71875 445.039062 " fill-opacity="1" fill-rule="nonzero"/><path stroke-linecap="round" transform="matrix(0.131711, 0, 0, -0.1316, 288.531467, 686.098281)" fill="none" stroke-linejoin="round" d="M 1428.786739 1831.752443 C 1388.89716 1818.840478 1389.223394 1787.287793 1379.288072 1732.849763 C 1399.099402 1727.952121 1478.255749 1713.0811 1498.007764 1727.952121 C 1547.506432 1762.502757 1468.350084 1802.129131 1428.786739 1831.752443 Z M 1428.786739 1831.752443 " stroke="#391448" stroke-width="45" stroke-opacity="1" stroke-miterlimit="10"/><path fill="#ffffff" d="M 538.863281 414.429688 C 540.167969 422.242188 528.378906 432.71875 545.964844 432.074219 C 566.164062 430.765625 543.996094 409.792969 538.863281 414.429688 " fill-opacity="1" fill-rule="nonzero"/><path stroke-linecap="round" transform="matrix(0.131711, 0, 0, -0.1316, 288.531467, 686.098281)" fill="none" stroke-linejoin="round" d="M 1900.610769 2064.345901 C 1910.516434 2004.980547 1821.009556 1925.371607 1954.528431 1930.269249 C 2107.888293 1940.212945 1939.58096 2099.579239 1900.610769 2064.345901 Z M 1900.610769 2064.345901 " stroke="#391448" stroke-width="45" stroke-opacity="1" stroke-miterlimit="10"/><path fill="#ffffff" d="M 523.6875 472.539062 C 514.839844 472.539062 513.917969 493.363281 529.554688 490.109375 C 549.746094 486.207031 535.414062 478.394531 523.6875 472.539062 " fill-opacity="1" fill-rule="nonzero"/><path stroke-linecap="round" transform="matrix(0.131711, 0, 0, -0.1316, 288.531467, 686.098281)" fill="none" stroke-linejoin="round" d="M 1785.390682 1622.786396 C 1718.216037 1622.786396 1711.216825 1464.548044 1829.936517 1489.273714 C 1983.237065 1518.926708 1874.423037 1578.292063 1785.390682 1622.786396 Z M 1785.390682 1622.786396 " stroke="#391448" stroke-width="45" stroke-opacity="1" stroke-miterlimit="10"/><path fill="#ffffff" d="M 598.308594 394.988281 C 599.613281 404.097656 582.675781 413.863281 597.003906 416.472656 C 602.214844 417.117188 611.335938 413.210938 611.335938 408.65625 C 611.335938 403.449219 603.21875 387.234375 598.308594 394.988281 " fill-opacity="1" fill-rule="nonzero"/><path stroke-linecap="round" transform="matrix(0.131711, 0, 0, -0.1316, 288.531467, 686.098281)" fill="none" stroke-linejoin="round" d="M 2351.941341 2212.076586 C 2361.847006 2142.856583 2233.251306 2068.64989 2342.035676 2048.821861 C 2381.599021 2043.92422 2450.849704 2073.606897 2450.849704 2108.216898 C 2450.849704 2147.783907 2389.221045 2270.9967 2351.941341 2212.076586 Z M 2351.941341 2212.076586 " stroke="#391448" stroke-width="45" stroke-opacity="1" stroke-miterlimit="10"/><path fill="#ffffff" d="M 755.554688 428.480469 C 747.816406 428.480469 740.304688 425.363281 734.835938 419.90625 C 731.957031 417.019531 729.734375 413.570312 728.273438 409.824219 C 724.042969 412.21875 719.191406 413.59375 714.0625 413.59375 C 699.046875 413.59375 686.371094 401.824219 684.90625 387.160156 C 671.097656 384.859375 660.292969 372.640625 660.292969 358.273438 C 660.292969 347.554688 666.304688 338.035156 675.09375 332.933594 C 669.597656 327.589844 666.140625 320.15625 666.140625 312.035156 C 666.140625 306.933594 667.503906 302.113281 669.875 297.902344 C 660.964844 296.492188 651.816406 296.402344 642.675781 296.019531 C 620.195312 292.117188 582.578125 300.414062 564.496094 314.085938 C 550.328125 324.339844 540.558594 334.589844 529.320312 347.769531 C 523.457031 355.089844 522.476562 362.898438 518.566406 371.203125 C 514.664062 377.550781 510.753906 381.941406 508.796875 389.753906 C 503.910156 405.867188 502.449219 421.972656 502.449219 438.570312 C 502.449219 458.101562 506.84375 470.792969 515.640625 487.878906 C 521.5 498.617188 527.367188 513.753906 537.136719 521.566406 C 551.304688 532.792969 567.917969 539.625 583.554688 547.925781 C 599.191406 556.222656 608.960938 563.0625 627.039062 563.550781 C 641.699219 564.039062 652.933594 563.550781 667.105469 559.644531 C 681.761719 555.734375 694.464844 546.949219 708.632812 541.578125 C 722.804688 536.210938 734.527344 520.589844 742.347656 508.378906 C 753.097656 490.320312 760.910156 473.234375 764.332031 452.238281 C 765.882812 443.742188 766.804688 434.945312 767.125 426.078125 C 763.5 427.640625 759.558594 428.480469 755.554688 428.480469 " fill-opacity="1" fill-rule="nonzero"/><g clip-path="url(#99a49f39f3)"><path stroke-linecap="round" transform="matrix(0.131711, 0, 0, -0.1316, 288.531467, 686.098281)" fill="none" stroke-linejoin="round" d="M 3545.811245 1957.577312 C 3487.059381 1957.577312 3430.027663 1981.264088 3388.506911 2022.730788 C 3366.649201 2044.666287 3349.773981 2070.87609 3338.682009 2099.341778 C 3306.562741 2081.146297 3269.727903 2070.697994 3230.787369 2070.697994 C 3116.783248 2070.697994 3020.544076 2160.131901 3009.422446 2271.560671 C 2904.582548 2289.043768 2822.549405 2381.891182 2822.549405 2491.064069 C 2822.549405 2572.513335 2868.192575 2644.850019 2934.922355 2683.615596 C 2893.193999 2724.221498 2866.946952 2780.707633 2866.946952 2842.417919 C 2866.946952 2881.183495 2877.297483 2917.811919 2895.299694 2949.809845 C 2827.650526 2960.525291 2758.19224 2961.207993 2688.793269 2964.116895 C 2518.113321 2993.76989 2232.509864 2930.723883 2095.224464 2826.834513 C 1987.656059 2748.917486 1913.482202 2671.030141 1828.157057 2570.880788 C 1783.640879 2515.255451 1776.196801 2455.919779 1746.509464 2392.814407 C 1716.881442 2344.580057 1687.194104 2311.216728 1672.335607 2251.851373 C 1635.233849 2129.41033 1624.141877 2007.028652 1624.141877 1880.906956 C 1624.141877 1732.493571 1657.506767 1636.054552 1724.295862 1506.222522 C 1768.782382 1424.624843 1813.328217 1309.604469 1887.502074 1250.239114 C 1995.070479 1164.9311 2121.204592 1113.016098 2239.924284 1049.940409 C 2358.643977 986.894402 2432.817834 934.920034 2570.073577 931.2097 C 2681.378849 927.499365 2766.674337 931.2097 2874.272399 960.892377 C 2985.548014 990.604737 3081.994789 1057.361078 3189.563194 1098.174759 C 3297.161257 1138.958757 3386.163954 1257.659784 3445.538629 1350.447832 C 3527.156564 1487.670849 3586.471924 1617.502879 3612.452052 1777.047269 C 3624.22615 1841.607092 3631.225363 1908.452481 3633.657293 1975.832158 C 3606.134966 1963.959087 3576.210367 1957.577312 3545.811245 1957.577312 Z M 3545.811245 1957.577312 " stroke="#391448" stroke-width="45" stroke-opacity="1" stroke-miterlimit="10"/></g><path fill="#ffffff" d="M 545.335938 382.207031 L 544.6875 380.914062 C 540.777344 384.816406 529.703125 394.578125 542.734375 395.878906 C 551.203125 397.179688 554.460938 385.460938 545.335938 382.207031 " fill-opacity="1" fill-rule="nonzero"/><path stroke-linecap="round" transform="matrix(0.131711, 0, 0, -0.1316, 288.531467, 686.098281)" fill="none" stroke-linejoin="round" d="M 1949.753544 2309.198306 L 1944.830369 2319.023272 C 1915.143032 2289.370277 1831.063509 2215.193267 1930.001529 2205.308935 C 1994.299379 2195.424604 2019.033884 2284.472636 1949.753544 2309.198306 Z M 1949.753544 2309.198306 " stroke="#391448" stroke-width="45" stroke-opacity="1" stroke-miterlimit="10"/><path fill="#ffffff" d="M 636.507812 412.894531 L 635.851562 411.585938 C 631.941406 415.492188 620.871094 425.257812 633.898438 426.558594 C 642.367188 427.855469 645.628906 416.140625 636.507812 412.894531 " fill-opacity="1" fill-rule="nonzero"/><path stroke-linecap="round" transform="matrix(0.131711, 0, 0, -0.1316, 288.531467, 686.098281)" fill="none" stroke-linejoin="round" d="M 2641.963793 2076.011194 L 2636.981302 2085.95489 C 2607.293965 2056.272213 2523.2441 1982.06552 2622.152463 1972.181189 C 2686.450313 1962.32654 2711.214475 2051.344889 2641.963793 2076.011194 Z M 2641.963793 2076.011194 " stroke="#391448" stroke-width="45" stroke-opacity="1" stroke-miterlimit="10"/><path fill="#ffffff" d="M 656.582031 325.796875 L 657.421875 324.609375 C 652.132812 323.015625 638.28125 317.878906 643.296875 329.964844 C 646.152344 338.035156 658.027344 335.367188 656.582031 325.796875 " fill-opacity="1" fill-rule="nonzero"/><path stroke-linecap="round" transform="matrix(0.131711, 0, 0, -0.1316, 288.531467, 686.098281)" fill="none" stroke-linejoin="round" d="M 2794.37461 2737.845847 L 2800.751011 2746.869381 C 2760.594512 2758.979913 2655.428379 2798.012634 2693.50884 2706.17443 C 2715.188604 2644.850019 2805.347951 2665.123288 2794.37461 2737.845847 Z M 2794.37461 2737.845847 " stroke="#391448" stroke-width="45" stroke-opacity="1" stroke-miterlimit="10"/><path fill="#ffffff" d="M 712.65625 496.570312 L 712.007812 495.265625 C 708.097656 499.171875 697.023438 508.933594 710.054688 510.242188 C 718.523438 511.542969 721.777344 499.828125 712.65625 496.570312 " fill-opacity="1" fill-rule="nonzero"/><path stroke-linecap="round" transform="matrix(0.131711, 0, 0, -0.1316, 288.531467, 686.098281)" fill="none" stroke-linejoin="round" d="M 3220.110604 1440.178566 L 3215.187429 1450.09258 C 3185.500092 1420.409903 3101.420569 1346.232892 3200.35859 1336.289195 C 3264.65644 1326.404864 3289.361287 1415.423213 3220.110604 1440.178566 Z M 3220.110604 1440.178566 " stroke="#391448" stroke-width="45" stroke-opacity="1" stroke-miterlimit="10"/><path fill="#ffffff" d="M 559.578125 496.570312 L 558.929688 495.265625 C 555.019531 499.171875 543.941406 508.933594 556.976562 510.242188 C 565.445312 511.542969 568.699219 499.828125 559.578125 496.570312 " fill-opacity="1" fill-rule="nonzero"/><path stroke-linecap="round" transform="matrix(0.131711, 0, 0, -0.1316, 288.531467, 686.098281)" fill="none" stroke-linejoin="round" d="M 2057.885445 1440.178566 L 2052.96227 1450.09258 C 2023.274933 1420.409903 1939.165752 1346.232892 2038.13343 1336.289195 C 2102.43128 1326.404864 2127.136128 1415.423213 2057.885445 1440.178566 Z M 2057.885445 1440.178566 " stroke="#391448" stroke-width="45" stroke-opacity="1" stroke-miterlimit="10"/><path fill="#ffffff" d="M 533.042969 456.496094 C 531.738281 463.65625 514.800781 468.863281 531.085938 470.816406 C 536.296875 471.46875 544.777344 468.894531 546.417969 462.859375 C 545.382812 448.269531 538.253906 457.148438 533.042969 456.496094 " fill-opacity="1" fill-rule="nonzero"/><path stroke-linecap="round" transform="matrix(0.131711, 0, 0, -0.1316, 288.531467, 686.098281)" fill="none" stroke-linejoin="round" d="M 1856.420826 1744.693151 C 1846.51516 1690.284804 1717.919461 1650.717795 1841.562328 1635.876456 C 1881.125673 1630.919449 1945.512496 1650.480333 1957.968721 1696.34007 C 1950.109436 1807.204869 1895.984171 1739.736144 1856.420826 1744.693151 Z M 1856.420826 1744.693151 " stroke="#391448" stroke-width="45" stroke-opacity="1" stroke-miterlimit="10"/><path fill="#ffffff" d="M 604.375 449.113281 L 601.632812 451.972656 C 597.644531 453.191406 577.871094 460.183594 591.175781 466.113281 C 596.746094 468.34375 619.660156 455.613281 604.375 449.113281 " fill-opacity="1" fill-rule="nonzero"/><path stroke-linecap="round" transform="matrix(0.131711, 0, 0, -0.1316, 288.531467, 686.098281)" fill="none" stroke-linejoin="round" d="M 2397.999718 1800.793411 L 2377.180027 1779.065691 C 2346.899536 1769.804696 2196.77236 1716.672704 2297.786418 1671.6144 C 2340.078269 1654.665591 2514.050219 1751.401436 2397.999718 1800.793411 Z M 2397.999718 1800.793411 " stroke="#391448" stroke-width="45" stroke-opacity="1" stroke-miterlimit="10"/><path fill="#ffffff" d="M 605.429688 367.972656 L 599.582031 375.902344 C 600.148438 381.875 595.859375 383.65625 598.800781 387.804688 C 600.710938 390.503906 608.023438 384.042969 612.089844 379.828125 C 614.808594 377.015625 624.792969 368.554688 620.105469 364.03125 C 616.375 361.335938 608.617188 365.613281 605.429688 367.972656 " fill-opacity="1" fill-rule="nonzero"/><path stroke-linecap="round" transform="matrix(0.131711, 0, 0, -0.1316, 288.531467, 686.098281)" fill="none" stroke-linejoin="round" d="M 2406.007292 2417.361981 L 2361.609745 2357.106147 C 2365.910108 2311.721333 2333.345976 2298.186032 2355.678209 2266.663029 C 2370.180814 2246.152299 2425.699991 2295.247447 2456.573636 2327.275056 C 2477.215381 2348.646584 2553.020411 2412.939262 2517.431195 2447.311803 C 2489.108111 2467.79285 2430.207958 2435.290318 2406.007292 2417.361981 Z M 2406.007292 2417.361981 " stroke="#391448" stroke-width="45" stroke-opacity="1" stroke-miterlimit="10"/><path fill="#ffffff" d="M 680.1875 412.398438 C 694.515625 409.140625 680.835938 398.078125 673.667969 392.871094 L 673.125 392.871094 C 667.910156 399.378906 665.203125 415.648438 680.1875 412.398438 " fill-opacity="1" fill-rule="nonzero"/><path stroke-linecap="round" transform="matrix(0.131711, 0, 0, -0.1316, 288.531467, 686.098281)" fill="none" stroke-linejoin="round" d="M 2973.595969 2079.780894 C 3082.380339 2104.536246 2978.519144 2188.597588 2924.097301 2228.164597 L 2919.974884 2228.164597 C 2880.381881 2178.713257 2859.829109 2055.084906 2973.595969 2079.780894 Z M 2973.595969 2079.780894 " stroke="#391448" stroke-width="45" stroke-opacity="1" stroke-miterlimit="10"/><path fill="#ffffff" d="M 576.898438 411.585938 L 576.347656 411.585938 C 571.132812 418.101562 568.429688 434.371094 583.410156 431.117188 C 597.746094 427.855469 584.058594 416.792969 576.898438 411.585938 " fill-opacity="1" fill-rule="nonzero"/><path stroke-linecap="round" transform="matrix(0.131711, 0, 0, -0.1316, 288.531467, 686.098281)" fill="none" stroke-linejoin="round" d="M 2189.387598 2085.95489 L 2185.205865 2085.95489 C 2145.612862 2036.444185 2125.089748 1912.815834 2238.82695 1937.541505 C 2347.670635 1962.32654 2243.750125 2046.387882 2189.387598 2085.95489 Z M 2189.387598 2085.95489 " stroke="#391448" stroke-width="45" stroke-opacity="1" stroke-miterlimit="10"/><path fill="#ffffff" d="M 575.589844 335.910156 C 580.800781 340.472656 602.199219 336.46875 600.996094 331.355469 C 599.378906 324.503906 592.46875 321.59375 586.605469 318.988281 L 583.410156 318.988281 C 582.101562 326.148438 565.167969 327.449219 575.589844 335.910156 " fill-opacity="1" fill-rule="nonzero"/><path stroke-linecap="round" transform="matrix(0.131711, 0, 0, -0.1316, 288.531467, 686.098281)" fill="none" stroke-linejoin="round" d="M 2179.452275 2660.997396 C 2219.01562 2626.328029 2381.48039 2656.752773 2372.345825 2695.607397 C 2360.067545 2747.670813 2307.60311 2769.784408 2263.086932 2789.582753 L 2238.82695 2789.582753 C 2228.891627 2735.174406 2100.325585 2725.290074 2179.452275 2660.997396 Z M 2179.452275 2660.997396 " stroke="#391448" stroke-width="45" stroke-opacity="1" stroke-miterlimit="10"/><path fill="#ffffff" d="M 609.195312 491.152344 C 603.945312 492.859375 603.984375 497.015625 602.683594 504.179688 C 605.285156 504.824219 615.710938 506.777344 618.3125 504.824219 C 624.832031 500.269531 614.410156 495.0625 609.195312 491.152344 " fill-opacity="1" fill-rule="nonzero"/><path stroke-linecap="round" transform="matrix(0.131711, 0, 0, -0.1316, 288.531467, 686.098281)" fill="none" stroke-linejoin="round" d="M 2434.597295 1481.348439 C 2394.737373 1468.377109 2395.03395 1436.79474 2385.157943 1382.35671 C 2404.909957 1377.459069 2484.066305 1362.61773 2503.81832 1377.459069 C 2553.316988 1412.06907 2474.190298 1451.636079 2434.597295 1481.348439 Z M 2434.597295 1481.348439 " stroke="#391448" stroke-width="45" stroke-opacity="1" stroke-miterlimit="10"/><path fill="#ffffff" d="M 671.34375 460.550781 C 672.648438 468.359375 660.859375 478.84375 678.449219 478.195312 C 698.640625 476.890625 676.472656 455.914062 671.34375 460.550781 " fill-opacity="1" fill-rule="nonzero"/><path stroke-linecap="round" transform="matrix(0.131711, 0, 0, -0.1316, 288.531467, 686.098281)" fill="none" stroke-linejoin="round" d="M 2906.450982 1713.882532 C 2916.356647 1654.54686 2826.849769 1574.878555 2960.398302 1579.805879 C 3113.698849 1589.719893 2945.391516 1749.11587 2906.450982 1713.882532 Z M 2906.450982 1713.882532 " stroke="#391448" stroke-width="45" stroke-opacity="1" stroke-miterlimit="10"/><path fill="#ffffff" d="M 656.164062 518.660156 C 647.316406 518.660156 646.394531 539.484375 662.03125 536.230469 C 682.230469 532.332031 667.894531 524.515625 656.164062 518.660156 " fill-opacity="1" fill-rule="nonzero"/><path stroke-linecap="round" transform="matrix(0.131711, 0, 0, -0.1316, 288.531467, 686.098281)" fill="none" stroke-linejoin="round" d="M 2791.201238 1272.323026 C 2724.026593 1272.323026 2717.02738 1114.084674 2835.747073 1138.810344 C 2989.106936 1168.433656 2880.263251 1227.828693 2791.201238 1272.323026 Z M 2791.201238 1272.323026 " stroke="#391448" stroke-width="45" stroke-opacity="1" stroke-miterlimit="10"/><path fill="#ffffff" d="M 730.789062 441.109375 C 732.089844 450.21875 715.152344 459.984375 729.484375 462.585938 C 734.699219 463.242188 743.816406 459.332031 743.816406 454.777344 C 743.816406 449.570312 735.695312 433.359375 730.789062 441.109375 " fill-opacity="1" fill-rule="nonzero"/><path stroke-linecap="round" transform="matrix(0.131711, 0, 0, -0.1316, 288.531467, 686.098281)" fill="none" stroke-linejoin="round" d="M 3357.781554 1861.613216 C 3367.657562 1792.393213 3239.061862 1718.18652 3347.875889 1698.417857 C 3387.468892 1693.431167 3456.689917 1723.143527 3456.689917 1757.753529 C 3456.689917 1797.320537 3395.0316 1920.503648 3357.781554 1861.613216 Z M 3357.781554 1861.613216 " stroke="#391448" stroke-width="45" stroke-opacity="1" stroke-miterlimit="10"/><g fill="#000000" fill-opacity="1"><g transform="translate(145.051463, 515.999994)"><g><path d="M 91.5 -219 C 102.101562 -219 111.65625 -217.5 120.15625 -214.5 C 128.65625 -211.5 136.003906 -207.25 142.203125 -201.75 C 148.398438 -196.25 153.296875 -189.546875 156.890625 -181.640625 C 160.492188 -173.742188 162.5 -165 162.90625 -155.40625 L 125.40625 -155.40625 C 125 -164.800781 121.742188 -172.148438 115.640625 -177.453125 C 109.546875 -182.753906 101.5 -185.40625 91.5 -185.40625 C 81.101562 -185.40625 72.851562 -182.503906 66.75 -176.703125 C 60.644531 -170.898438 57.59375 -162.898438 57.59375 -152.703125 L 57.59375 -63.296875 C 57.59375 -53.097656 60.539062 -45.097656 66.4375 -39.296875 C 72.34375 -33.492188 80.695312 -30.59375 91.5 -30.59375 C 101.5 -30.59375 109.546875 -33.34375 115.640625 -38.84375 C 121.742188 -44.34375 125 -51.695312 125.40625 -60.90625 L 162.90625 -60.90625 C 161.90625 -41.300781 155.050781 -25.75 142.34375 -14.25 C 129.644531 -2.75 112.695312 3 91.5 3 C 80.695312 3 70.894531 1.453125 62.09375 -1.640625 C 53.300781 -4.742188 45.800781 -9.195312 39.59375 -15 C 33.394531 -20.800781 28.59375 -27.800781 25.1875 -36 C 21.789062 -44.195312 20.09375 -53.296875 20.09375 -63.296875 L 20.09375 -152.703125 C 20.09375 -162.703125 21.789062 -171.800781 25.1875 -180 C 28.59375 -188.195312 33.394531 -195.195312 39.59375 -201 C 45.800781 -206.800781 53.300781 -211.25 62.09375 -214.34375 C 70.894531 -217.445312 80.695312 -219 91.5 -219 Z M 91.5 -219 "/></g></g></g><g fill="#000000" fill-opacity="1"><g transform="translate(801.98399, 515.999994)"><g><path d="M 61.5 -219 L 61.5 -99.90625 L 87.90625 -99.90625 L 129 -165 L 171 -165 L 120 -84.59375 L 171.90625 0 L 129 0 L 87.90625 -67.796875 L 61.5 -67.796875 L 61.5 0 L 24 0 L 24 -219 Z M 61.5 -219 "/></g></g></g><g fill="#000000" fill-opacity="1"><g transform="translate(981.983658, 515.999994)"><g><path d="M 24.90625 -34.203125 L 84 -34.203125 L 84 -131.09375 L 32.40625 -131.09375 L 32.40625 -165 L 120 -165 L 120 -34.203125 L 167.703125 -34.203125 L 167.703125 0 L 24.90625 0 Z M 73.203125 -209.703125 C 73.203125 -215.503906 75.148438 -220.253906 79.046875 -223.953125 C 82.953125 -227.648438 88.101562 -229.5 94.5 -229.5 L 102.296875 -229.5 C 108.703125 -229.5 113.851562 -227.648438 117.75 -223.953125 C 121.644531 -220.253906 123.59375 -215.503906 123.59375 -209.703125 C 123.59375 -203.703125 121.59375 -198.898438 117.59375 -195.296875 C 113.59375 -191.703125 108.394531 -189.90625 102 -189.90625 L 94.5 -189.90625 C 88.101562 -189.90625 82.953125 -191.703125 79.046875 -195.296875 C 75.148438 -198.898438 73.203125 -203.703125 73.203125 -209.703125 Z M 73.203125 -209.703125 "/></g></g></g><g fill="#000000" fill-opacity="1"><g transform="translate(1161.983327, 515.999994)"><g><path d="M 90 3 C 79.195312 3 69.34375 1.453125 60.4375 -1.640625 C 51.539062 -4.742188 43.992188 -9.09375 37.796875 -14.6875 C 31.597656 -20.289062 26.796875 -27.09375 23.390625 -35.09375 C 19.992188 -43.09375 18.296875 -51.992188 18.296875 -61.796875 L 18.296875 -103.5 C 18.296875 -113.300781 19.992188 -122.203125 23.390625 -130.203125 C 26.796875 -138.203125 31.597656 -145 37.796875 -150.59375 C 43.992188 -156.195312 51.539062 -160.5 60.4375 -163.5 C 69.34375 -166.5 79.195312 -168 90 -168 C 100.800781 -168 110.597656 -166.445312 119.390625 -163.34375 C 128.191406 -160.25 135.691406 -155.898438 141.890625 -150.296875 C 148.097656 -144.703125 152.898438 -137.90625 156.296875 -129.90625 C 159.703125 -121.90625 161.40625 -113.003906 161.40625 -103.203125 L 161.40625 -73.203125 L 55.5 -73.203125 L 55.5 -62.40625 C 55.5 -51.40625 58.546875 -42.800781 64.640625 -36.59375 C 70.742188 -30.394531 79.195312 -27.296875 90 -27.296875 C 98.195312 -27.296875 105.144531 -28.546875 110.84375 -31.046875 C 116.550781 -33.546875 120.601562 -37.195312 123 -42 L 159.90625 -42 C 158.101562 -35.195312 155.097656 -28.992188 150.890625 -23.390625 C 146.691406 -17.796875 141.539062 -13.046875 135.4375 -9.140625 C 129.34375 -5.242188 122.445312 -2.242188 114.75 -0.140625 C 107.050781 1.953125 98.800781 3 90 3 Z M 124.5 -98.40625 L 124.5 -103.203125 C 124.5 -114.203125 121.5 -122.75 115.5 -128.84375 C 109.5 -134.945312 101 -138 90 -138 C 79.195312 -138 70.742188 -134.945312 64.640625 -128.84375 C 58.546875 -122.75 55.5 -114.300781 55.5 -103.5 L 55.5 -98.40625 Z M 124.5 -98.40625 "/></g></g></g></svg>